<svg width="75" height="75" viewBox="0 0 75 75" fill="none" xmlns="http://www.w3.org/2000/svg">
<circle cx="37.5" cy="37.5" r="37.5" fill="#D9D9D9"/>
<g clip-path="url(#clip0_178_2)">
<path d="M43.75 28.75C43.75 27.2996 43.0915 25.9086 41.9194 24.883C40.7473 23.8574 39.1576 23.2812 37.5 23.2812C35.8424 23.2812 34.2527 23.8574 33.0806 24.883C31.9085 25.9086 31.25 27.2996 31.25 28.75C31.25 30.2004 31.9085 31.5914 33.0806 32.617C34.2527 33.6426 35.8424 34.2188 37.5 34.2188C39.1576 34.2188 40.7473 33.6426 41.9194 32.617C43.0915 31.5914 43.75 30.2004 43.75 28.75ZM27.5 28.75C27.5 26.4294 28.5536 24.2038 30.4289 22.5628C32.3043 20.9219 34.8478 20 37.5 20C40.1522 20 42.6957 20.9219 44.5711 22.5628C46.4464 24.2038 47.5 26.4294 47.5 28.75C47.5 31.0706 46.4464 33.2962 44.5711 34.9372C42.6957 36.5781 40.1522 37.5 37.5 37.5C34.8478 37.5 32.3043 36.5781 30.4289 34.9372C28.5536 33.2962 27.5 31.0706 27.5 28.75ZM23.8516 51.7188H51.1484C50.4531 47.3916 46.2031 44.0625 41.0703 44.0625H33.9297C28.7969 44.0625 24.5469 47.3916 23.8516 51.7188ZM20 52.9697C20 46.2363 26.2344 40.7812 33.9297 40.7812H41.0703C48.7656 40.7812 55 46.2363 55 52.9697C55 54.0908 53.9609 55 52.6797 55H22.3203C21.0391 55 20 54.0908 20 52.9697Z" fill="white"/>
</g>
<defs>
<clipPath id="clip0_178_2">
<rect width="35" height="35" fill="white" transform="translate(20 20)"/>
</clipPath>
</defs>
</svg>
