<svg width="150" height="150" viewBox="0 0 150 150" fill="none" xmlns="http://www.w3.org/2000/svg">
<g clip-path="url(#clip0_73_50)">
<path d="M75 9.375C73.1016 9.375 71.2266 9.78516 69.4453 10.5762L3.70313 40.2539C1.47657 41.2793 6.48899e-06 43.916 6.48899e-06 46.875C6.48899e-06 49.834 1.47657 52.4707 3.70313 53.4961L17.2734 59.6191C13.4297 67.1777 11.25 76.1133 11.25 85.5176V93.75C11.25 102.07 8.71876 110.654 6.02344 117.422C4.50001 121.23 2.76563 124.98 0.750006 128.438C6.49691e-06 129.697 -0.210931 131.338 0.210944 132.832C0.632819 134.326 1.61719 135.439 2.83594 135.82L17.8359 140.508C18.8203 140.83 19.875 140.596 20.7422 139.922C21.6094 139.248 22.2188 138.135 22.4063 136.875C24.4219 124.336 23.4141 113.086 21.9141 105.029C21.1641 100.869 20.1563 96.6211 18.75 92.7246V85.5176C18.75 76.6699 21.1406 68.3203 25.2891 61.6406C28.3125 57.0996 32.2266 53.4375 36.8203 51.1816L73.6172 33.1055C75.5391 32.168 77.7188 33.3398 78.4688 35.7422C79.2188 38.1445 78.2812 40.8691 76.3594 41.8066L39.5625 59.8828C36.6563 61.3184 34.1016 63.5156 32.0156 66.2109L69.4219 83.0859C71.2031 83.877 73.0781 84.2871 74.9766 84.2871C76.875 84.2871 78.75 83.877 80.5313 83.0859L146.297 53.4961C148.523 52.5 150 49.834 150 46.875C150 43.916 148.523 41.2793 146.297 40.2539L80.5547 10.5762C78.7734 9.78516 76.8984 9.375 75 9.375ZM30 119.531C30 129.873 50.1563 140.625 75 140.625C99.8438 140.625 120 129.873 120 119.531L116.414 76.9336L83.0859 91.9922C80.4844 93.1641 77.7422 93.75 75 93.75C72.2578 93.75 69.4922 93.1641 66.9141 91.9922L33.5859 76.9336L30 119.531Z" fill="white"/>
</g>
<defs>
<clipPath id="clip0_73_50">
<rect width="150" height="150" fill="white"/>
</clipPath>
</defs>
</svg>
